<svg width="82" height="82" viewBox="0 0 82 82" fill="none" xmlns="http://www.w3.org/2000/svg">
<circle cx="41" cy="41" r="41" fill="#FEAE50"/>
<path d="M56.5707 37.849C57.3673 40.8109 57.0494 43.92 55.6647 46.7095C54.28 49.499 51.9033 51.8182 48.8915 53.319C45.8797 54.8198 42.3954 55.4211 38.9617 55.0326C35.5281 54.6441 32.3305 53.2867 29.8491 51.1644" stroke="#463E3A" stroke-width="3" stroke-linecap="round"/>
<path d="M25.3605 44.0913C25.1204 43.1088 24.9995 42.1066 25 41.1017C24.9937 38.3408 25.9123 35.6395 27.6413 33.3346C29.3702 31.0298 31.8329 29.2236 34.7221 28.1414C37.6113 27.0593 40.7989 26.749 43.8874 27.2494C46.9759 27.7498 49.8283 29.0387 52.0888 30.9552" stroke="#463E3A" stroke-width="3" stroke-linecap="round"/>
<path d="M44.9001 31.577L52.3066 31.0987L51.7285 25" stroke="#463E3A" stroke-width="3" stroke-linecap="round"/>
<path d="M36.8615 50.4231L29.4619 50.9014L30.04 57.0001" stroke="#463E3A" stroke-width="3" stroke-linecap="round"/>
</svg>
