<svg width="82" height="82" viewBox="0 0 82 82" fill="none" xmlns="http://www.w3.org/2000/svg">
<circle cx="41" cy="41" r="41" fill="#FEAE50"/>
<path d="M41 25C32.1776 25 25 32.1776 25 41V47.6288C25 49.2672 26.4352 50.6 28.2 50.6H29.8C30.2243 50.6 30.6313 50.4314 30.9314 50.1314C31.2314 49.8313 31.4 49.4243 31.4 49V40.7712C31.4 40.3469 31.2314 39.9399 30.9314 39.6398C30.6313 39.3398 30.2243 39.1712 29.8 39.1712H28.3472C29.2368 32.9792 34.5648 28.2 41 28.2C47.4352 28.2 52.7632 32.9792 53.6528 39.1712H52.2C51.7757 39.1712 51.3687 39.3398 51.0686 39.6398C50.7686 39.9399 50.6 40.3469 50.6 40.7712V50.6C50.6 52.3648 49.1648 53.8 47.4 53.8H44.2V52.2H37.8V57H47.4C50.9296 57 53.8 54.1296 53.8 50.6C55.5648 50.6 57 49.2672 57 47.6288V41C57 32.1776 49.8224 25 41 25Z" fill="#463E3A"/>
</svg>
