<svg width="45" height="45" viewBox="0 0 45 45" fill="none" xmlns="http://www.w3.org/2000/svg">
<path fill-rule="evenodd" clip-rule="evenodd" d="M22.5 43.9996C34.3741 43.9996 44 34.3738 44 22.4996C44 10.6255 34.3741 0.999634 22.5 0.999634C10.6259 0.999634 1 10.6255 1 22.4996C1 34.3738 10.6259 43.9996 22.5 43.9996ZM22.5 44.9996C34.9264 44.9996 45 34.926 45 22.4996C45 10.0732 34.9264 -0.000366211 22.5 -0.000366211C10.0736 -0.000366211 0 10.0732 0 22.4996C0 34.926 10.0736 44.9996 22.5 44.9996Z" fill="#463E3A"/>
<path fill-rule="evenodd" clip-rule="evenodd" d="M26.9092 22.5001C26.9092 22.7857 26.787 23.0577 26.5735 23.2475L20.4372 28.702C20.0244 29.069 19.3923 29.0318 19.0254 28.619C18.6585 28.2062 18.6957 27.5741 19.1085 27.2072L24.404 22.5001L19.1085 17.793C18.6957 17.426 18.6585 16.794 19.0254 16.3812C19.3923 15.9684 20.0244 15.9312 20.4372 16.2981L26.5735 21.7527C26.787 21.9424 26.9092 22.2145 26.9092 22.5001Z" fill="#463E3A"/>
</svg>
