<svg width="10" height="8" viewBox="0 0 10 8" fill="none" xmlns="http://www.w3.org/2000/svg">
<path d="M9.70585 0.273051C9.88691 0.455218 9.99257 0.706453 9.99962 0.971517C10.0067 1.23658 9.91452 1.49377 9.74344 1.68655L4.41833 7.68724C4.33202 7.78432 4.22831 7.86201 4.11332 7.91571C3.99833 7.96941 3.87439 7.99804 3.74883 7.9999C3.62326 8.00177 3.49862 7.97683 3.38227 7.92656C3.26591 7.8763 3.1602 7.80172 3.07139 7.70724L0.252212 4.7069C0.0862189 4.51731 -0.00414904 4.26655 0.000146405 4.00745C0.00444185 3.74835 0.103065 3.50115 0.275239 3.31791C0.447413 3.13467 0.679695 3.02971 0.923147 3.02514C1.1666 3.02056 1.40222 3.11674 1.58036 3.2934L3.71667 5.56566L8.3777 0.313056C8.54887 0.120363 8.78493 0.00790258 9.03399 0.000400771C9.28305 -0.00710104 9.52472 0.0909701 9.70585 0.273051Z" fill="#FEAE50"/>
</svg>
