<svg width="37" height="37" viewBox="0 0 37 37" fill="none" xmlns="http://www.w3.org/2000/svg">
<path d="M18.4883 12.4154C15.1832 12.4154 12.4859 15.1127 12.4859 18.418C12.4859 21.7232 15.1832 24.4205 18.4883 24.4205C21.7935 24.4205 24.4908 21.7232 24.4908 18.418C24.4908 15.1127 21.7935 12.4154 18.4883 12.4154ZM36.4912 18.418C36.4912 15.9323 36.5137 13.4691 36.3741 10.9879C36.2345 8.106 35.5771 5.54827 33.4697 3.44085C31.3578 1.32892 28.8046 0.675982 25.9227 0.536387C23.4371 0.396793 20.974 0.419308 18.4928 0.419308C16.0072 0.419308 13.5441 0.396793 11.0629 0.536387C8.18105 0.675982 5.62337 1.33343 3.51599 3.44085C1.4041 5.55278 0.751172 8.106 0.61158 10.9879C0.471989 13.4736 0.494503 15.9368 0.494503 18.418C0.494503 20.8991 0.471989 23.3668 0.61158 25.848C0.751172 28.7299 1.4086 31.2877 3.51599 33.3951C5.62788 35.507 8.18105 36.16 11.0629 36.2995C13.5486 36.4391 16.0117 36.4166 18.4928 36.4166C20.9785 36.4166 23.4416 36.4391 25.9227 36.2995C28.8046 36.16 31.3623 35.5025 33.4697 33.3951C35.5816 31.2832 36.2345 28.7299 36.3741 25.848C36.5182 23.3668 36.4912 20.9036 36.4912 18.418ZM18.4883 27.6537C13.3775 27.6537 9.25276 23.5289 9.25276 18.418C9.25276 13.307 13.3775 9.18223 18.4883 9.18223C23.5992 9.18223 27.7239 13.307 27.7239 18.418C27.7239 23.5289 23.5992 27.6537 18.4883 27.6537ZM28.1021 10.9609C26.9089 10.9609 25.9452 9.99728 25.9452 8.80397C25.9452 7.61067 26.9089 6.64702 28.1021 6.64702C29.2954 6.64702 30.2591 7.61067 30.2591 8.80397C30.2594 9.08733 30.2039 9.36797 30.0956 9.62983C29.9873 9.89168 29.8285 10.1296 29.6281 10.33C29.4277 10.5303 29.1898 10.6892 28.928 10.7975C28.6661 10.9057 28.3855 10.9613 28.1021 10.9609Z" fill="#2E2827"/>
</svg>
