<svg width="24" height="24" viewBox="0 0 24 24" fill="none" xmlns="http://www.w3.org/2000/svg">
<path fill-rule="evenodd" clip-rule="evenodd" d="M10.7778 2C5.92994 2 2 5.92994 2 10.7778C2 15.6256 5.92994 19.5556 10.7778 19.5556C15.6256 19.5556 19.5556 15.6256 19.5556 10.7778C19.5556 5.92994 15.6256 2 10.7778 2ZM0 10.7778C0 4.82538 4.82538 0 10.7778 0C16.7302 0 21.5556 4.82538 21.5556 10.7778C21.5556 16.7302 16.7302 21.5556 10.7778 21.5556C4.82538 21.5556 0 16.7302 0 10.7778Z" fill="#1A1A1A"/>
<path fill-rule="evenodd" clip-rule="evenodd" d="M17.037 17.037C17.4276 16.6465 18.0607 16.6465 18.4512 17.037L23.7068 22.2926C24.0973 22.6831 24.0973 23.3163 23.7068 23.7068C23.3163 24.0973 22.6831 24.0973 22.2926 23.7068L17.037 18.4512C16.6465 18.0607 16.6465 17.4276 17.037 17.037Z" fill="#1A1A1A"/>
</svg>
