<svg width="71" height="71" viewBox="0 0 71 71" fill="none" xmlns="http://www.w3.org/2000/svg">
<circle cx="35.5" cy="35.5" r="35.5" fill="#FEAE50"/>
<path d="M52.3913 34.6957C52.3913 35.2659 52.3643 35.8299 52.3115 36.3864C51.4 35.4744 50.3328 34.7182 49.1532 34.1608C48.8718 26.4185 42.5067 20.2284 34.6957 20.2284C26.7056 20.2284 20.2284 26.7056 20.2284 34.6957C20.2284 42.5067 26.4185 48.8718 34.1608 49.1532C34.7182 50.3328 35.4744 51.4 36.3864 52.3115C35.8299 52.3643 35.2659 52.3913 34.6957 52.3913C24.9226 52.3913 17 44.4686 17 34.6957C17 24.9226 24.9226 17 34.6957 17C44.4686 17 52.3913 24.9226 52.3913 34.6957Z" fill="#FFF4E8"/>
<path d="M36.3043 34.5046L37.6598 35.2872C36.7623 35.9508 35.9668 36.7447 35.3014 37.6407L33.9193 36.8426C33.6398 36.6813 33.4272 36.4488 33.2907 36.1813C33.0869 35.8658 33.0869 35.4465 33.0869 35.4465V25.0435C33.0869 24.155 33.8071 23.4348 34.6956 23.4348C35.5841 23.4348 36.3043 24.1551 36.3043 25.0435V34.5046Z" fill="#FFF4E8"/>
<path d="M39.9926 43.8767C40.6208 43.2485 41.6395 43.2485 42.2676 43.8767L43.299 44.9081L46.3541 41.853C46.9824 41.2248 48.0009 41.2248 48.6291 41.853C49.2574 42.4813 49.2574 43.4998 48.6291 44.1282L44.5427 48.2146C44.4037 48.3536 44.2457 48.4618 44.0769 48.5392C43.4608 48.8996 42.6563 48.8156 42.128 48.2871L39.9926 46.1517C39.3644 45.5235 39.3644 44.5049 39.9926 43.8767Z" fill="#FFF4E8"/>
<path fill-rule="evenodd" clip-rule="evenodd" d="M44.3475 53.9997C49.6782 53.9997 53.9997 49.6782 53.9997 44.3475C53.9997 39.0168 49.6782 34.6953 44.3475 34.6953C39.0168 34.6953 34.6953 39.0168 34.6953 44.3475C34.6953 49.6782 39.0168 53.9997 44.3475 53.9997ZM44.3475 50.8114C40.7776 50.8114 37.8836 47.9173 37.8836 44.3475C37.8836 40.7776 40.7776 37.8836 44.3475 37.8836C47.9173 37.8836 50.8114 40.7776 50.8114 44.3475C50.8114 47.9173 47.9173 50.8114 44.3475 50.8114Z" fill="#FFF4E8"/>
</svg>
