<svg width="71" height="71" viewBox="0 0 71 71" fill="none" xmlns="http://www.w3.org/2000/svg">
<circle cx="35.5" cy="35.5" r="35.5" fill="#FEAE50"/>
<path d="M35 19C26.1776 19 19 26.1776 19 35V41.6288C19 43.2672 20.4352 44.6 22.2 44.6H23.8C24.2243 44.6 24.6313 44.4314 24.9314 44.1314C25.2314 43.8313 25.4 43.4243 25.4 43V34.7712C25.4 34.3469 25.2314 33.9399 24.9314 33.6398C24.6313 33.3398 24.2243 33.1712 23.8 33.1712H22.3472C23.2368 26.9792 28.5648 22.2 35 22.2C41.4352 22.2 46.7632 26.9792 47.6528 33.1712H46.2C45.7757 33.1712 45.3687 33.3398 45.0686 33.6398C44.7686 33.9399 44.6 34.3469 44.6 34.7712V44.6C44.6 46.3648 43.1648 47.8 41.4 47.8H38.2V46.2H31.8V51H41.4C44.9296 51 47.8 48.1296 47.8 44.6C49.5648 44.6 51 43.2672 51 41.6288V35C51 26.1776 43.8224 19 35 19Z" fill="#FFF4E8"/>
</svg>
