<svg width="71" height="71" viewBox="0 0 71 71" fill="none" xmlns="http://www.w3.org/2000/svg">
<circle cx="35.5" cy="35.5" r="35.5" fill="#FEAE50"/>
<path d="M35.492 34.3402C35.3089 34.3241 35.0891 34.3241 34.8876 34.3402C30.5282 34.2109 27.0664 31.0583 27.0664 27.1782C27.0664 23.2173 30.6931 20 35.199 20C39.6865 20 43.3315 23.2173 43.3315 27.1782C43.3132 31.0583 39.8513 34.2109 35.492 34.3402Z" stroke="#FFF4E8" stroke-width="3" stroke-linecap="round" stroke-linejoin="round"/>
<path d="M26.3266 40.2768C21.8911 42.8963 21.8911 47.1649 26.3266 49.7682C31.3669 52.7433 39.6331 52.7433 44.6734 49.7682C49.1089 47.1488 49.1089 42.8801 44.6734 40.2768C39.6514 37.3179 31.3852 37.3179 26.3266 40.2768Z" stroke="#FFF4E8" stroke-width="3" stroke-linecap="round" stroke-linejoin="round"/>
</svg>
