<svg width="71" height="71" viewBox="0 0 71 71" fill="none" xmlns="http://www.w3.org/2000/svg">
<circle cx="35.5" cy="35.5" r="35.5" fill="#FEAE50"/>
<path fill-rule="evenodd" clip-rule="evenodd" d="M41.6913 19.2028C44.3786 18.3974 47.1807 20.0719 47.6834 22.7836L48.2045 25.5948C50.0802 26.1986 51.4348 27.93 51.4348 29.9718V34.215C52.3954 35.0582 53 36.2838 53 37.6478V40.7183C53 42.0823 52.3954 43.3079 51.4348 44.1512V48.3944C51.4348 50.9381 49.3325 53 46.7391 53H21.6957C19.1023 53 17 50.9381 17 48.3944V29.9718C17 27.689 18.6932 25.7942 20.9149 25.4295L41.6913 19.2028ZM48.3043 42.2535C49.1688 42.2535 49.8696 41.5662 49.8696 40.7183V37.6478C49.8696 36.7999 49.1688 36.1126 48.3043 36.1126H43.6087C42.7442 36.1126 42.0435 36.7999 42.0435 37.6478V40.7183C42.0435 41.5662 42.7442 42.2535 43.6087 42.2535H48.3043ZM48.3043 45.3239V48.3944C48.3043 49.2423 47.6036 49.9296 46.7391 49.9296H21.6957C20.8312 49.9296 20.1304 49.2423 20.1304 48.3944V29.9718C20.1304 29.1239 20.8312 28.4366 21.6957 28.4366H46.7391C47.6 28.4366 48.2984 29.1181 48.3043 29.9611V33.0422H43.6087C41.0153 33.0422 38.913 35.1041 38.913 37.6478V40.7183C38.913 43.262 41.0153 45.3239 43.6087 45.3239H48.3043ZM44.6971 23.2276L45.0819 25.3661H31.087L42.7059 22.024C43.6032 21.76 44.5344 22.3228 44.6971 23.2276Z" fill="#FFF4E8"/>
</svg>
