<svg width="71" height="71" viewBox="0 0 71 71" fill="none" xmlns="http://www.w3.org/2000/svg">
<circle cx="35.5" cy="35.5" r="35.5" fill="#FEAE50"/>
<path d="M50.5712 31.8486C51.3678 34.8105 51.0499 37.9196 49.6652 40.7091C48.2805 43.4986 45.9038 45.8179 42.892 47.3187C39.8802 48.8194 36.3959 49.4207 32.9622 49.0322C29.5286 48.6437 26.331 47.2864 23.8496 45.164" stroke="#FFF4E8" stroke-width="3" stroke-linecap="round"/>
<path d="M19.3605 38.0913C19.1204 37.1088 18.9995 36.1066 19 35.1017C18.9937 32.3408 19.9123 29.6395 21.6413 27.3346C23.3702 25.0298 25.8329 23.2236 28.7221 22.1414C31.6113 21.0593 34.7989 20.749 37.8874 21.2494C40.9759 21.7498 43.8283 23.0387 46.0888 24.9552" stroke="#FFF4E8" stroke-width="3" stroke-linecap="round"/>
<path d="M38.9004 25.577L46.3068 25.0987L45.7287 19" stroke="#FFF4E8" stroke-width="3" stroke-linecap="round"/>
<path d="M30.8615 44.4229L23.4619 44.9012L24.04 50.9998" stroke="#FFF4E8" stroke-width="3" stroke-linecap="round"/>
</svg>
